<svg width="83" height="104" viewBox="0 0 83 104" fill="none" xmlns="http://www.w3.org/2000/svg">
<path fill-rule="evenodd" clip-rule="evenodd" d="M71.2275 41.8622C74.2918 34.4313 76.8719 26.6258 82.2145 20.4477C82.5313 20.0788 82.4898 19.5232 82.1179 19.203C81.7449 18.886 81.1859 18.9241 80.8658 19.2918C75.3991 25.6147 72.7188 33.5817 69.5843 41.1856C69.3967 41.6343 69.6162 42.1526 70.0702 42.3383C70.5228 42.5273 71.0399 42.3109 71.2275 41.8622Z" fill="white"/>
<path fill-rule="evenodd" clip-rule="evenodd" d="M59.9842 38.3165C58.7127 35.1448 58.0675 31.9684 58.447 28.5743C58.5015 28.0896 58.1498 27.6526 57.6637 27.5941C57.1764 27.539 56.737 27.8872 56.6837 28.3686C56.2707 32.0592 56.955 35.5111 58.3363 38.9589C58.5172 39.4134 59.0334 39.6381 59.4892 39.4585C59.9433 39.282 60.1664 38.7676 59.9842 38.3165Z" fill="white"/>
<path fill-rule="evenodd" clip-rule="evenodd" d="M33.7958 35.7192C30.5012 33.2231 28.4128 29.9979 27.5621 25.9576C27.4615 25.4812 26.991 25.1722 26.5112 25.2709C26.0326 25.3663 25.7247 25.8329 25.8252 26.3093C26.7678 30.7812 29.0769 34.3553 32.7247 37.1191C33.1146 37.4161 33.6729 37.34 33.9677 36.9551C34.2641 36.567 34.187 36.0128 33.7958 35.7192Z" fill="white"/>
<path fill-rule="evenodd" clip-rule="evenodd" d="M14.5712 70.7323C15.0833 71.6612 15.6794 72.5469 16.3611 73.3673C16.6645 73.7329 17.3398 74.4302 18.0219 74.7602C18.7475 75.1144 19.4783 75.1046 20.0621 74.5817C20.8369 73.8868 21.0561 73.1785 20.9931 72.543C20.9331 71.9312 20.5821 71.336 20.0021 70.8225C18.8933 69.8418 16.887 69.154 15.6607 68.9735C15.2138 68.0206 14.8581 67.0273 14.594 66.0087C12.6269 58.4224 17.5498 50.2942 26.4912 46.0195C29.6214 44.5238 34.7327 45.1893 40.0047 46.5393C48.2137 48.6403 56.7877 52.5344 59.3307 53.5945C59.9592 53.8548 60.3588 53.9404 60.4467 53.9364C60.8762 53.9241 61.0773 53.6881 61.187 53.5114C61.3429 53.2543 61.3745 53.0136 61.3498 52.8003C61.3147 52.5113 61.1663 52.2278 60.8557 52.0029C60.6836 51.8801 60.4227 51.7648 60.1366 51.6624C59.9374 51.5934 59.7073 51.5503 59.5815 51.4567C58.7772 50.8534 58.0143 50.2055 57.2427 49.5619C54.6457 47.4056 52.3503 45.0254 50.1137 42.5019C43.0067 34.4843 35.339 26.4249 31.4778 16.2729C31.3045 15.8176 30.7924 15.5831 30.3339 15.7541C29.8766 15.9219 29.6458 16.4295 29.8182 16.8882C33.755 27.2428 41.5374 35.4859 48.7849 43.6632C50.6876 45.8094 52.6327 47.8549 54.7607 49.7518C50.3939 47.9646 44.2848 45.659 38.5847 44.3861C33.5154 43.2537 28.7572 42.9766 25.7143 44.4304C15.9192 49.113 10.7199 58.1312 12.8759 66.4393C13.1069 67.3281 13.4003 68.2031 13.7578 69.0499C6.23701 70.0739 0.942973 76.4179 1.43469 84.0111C1.46555 84.4985 1.88828 84.8684 2.37655 84.8409C2.86609 84.8101 3.23682 84.394 3.20596 83.9067C2.76301 77.0644 7.68489 71.3887 14.5712 70.7323ZM16.8337 71.0544C17.1108 71.4665 17.4094 71.8643 17.7276 72.2507C17.8991 72.4562 18.2378 72.8279 18.6143 73.0745C18.7029 73.1311 18.8523 73.1923 18.9219 73.219C19.1219 73.0354 19.2445 72.8788 19.2268 72.7059C19.206 72.4904 19.0291 72.3168 18.8261 72.1369C18.317 71.6846 17.556 71.3093 16.8337 71.0544Z" fill="white"/>
</svg>
